<?xml version="1.0" encoding="UTF-8" standalone="no"?>
<svg width="14px" height="15px" viewBox="0 0 14 15" version="1.1" xmlns="http://www.w3.org/2000/svg" xmlns:xlink="http://www.w3.org/1999/xlink">
    <!-- Generator: Sketch 46.2 (44496) - http://www.bohemiancoding.com/sketch -->
    <title>el-icon-share copy</title>
    <desc>Created with Sketch.</desc>
    <defs></defs>
    <g id="UI" stroke="none" stroke-width="1" fill="none" fill-rule="evenodd">
        <g id="文章详情" transform="translate(-643.000000, -132.000000)" fill="#7F4A88">
            <g id="1" transform="translate(287.000000, 127.000000)">
                <g id="分享ing" transform="translate(320.000000, 5.000000)">
                    <g id="Group-2" transform="translate(36.000000, 0.000000)">
                        <path d="M12.1025094,10.7911963 C12.3661978,10.903131 12.5974371,11.0589362 12.7968426,11.2588411 C12.9959668,11.4590284 13.1511459,11.691192 13.2626611,11.9558967 C13.3739126,12.220619 13.4296526,12.5059882 13.4296526,12.811775 C13.4296526,13.1178442 13.373895,13.4029487 13.2626611,13.6676533 C13.1511635,13.9323756 12.9959668,14.1648039 12.7968426,14.3647089 C12.5974371,14.5648962 12.3661802,14.7206837 12.1025094,14.8323537 C11.8388209,14.9442885 11.5545662,15 11.2499736,15 C10.9450998,15 10.6611087,14.9443061 10.3974379,14.8323537 C10.1337495,14.720666 9.9022289,14.5648962 9.70310468,14.3647089 C9.5036992,14.1648039 9.34852012,13.932358 9.23728618,13.6676533 C9.12578857,13.402931 9.07029465,13.1178442 9.07029465,12.811775 L9.07029465,12.6794227 C9.07029465,12.6383229 9.07607783,12.6000113 9.08789028,12.5647173 C9.08789028,12.517847 9.09063246,12.4737295 9.09667931,12.432365 C9.10246249,12.3912652 9.11123394,12.3529536 9.12304639,12.3176597 L3.77931727,9.19412732 C3.67384893,9.28843276 3.56535717,9.37363236 3.45412323,9.45000847 C3.34262561,9.52664929 3.22258507,9.58843135 3.09377307,9.63530172 C2.96467983,9.6943132 2.83008465,9.73537772 2.6894602,9.75884819 C2.54883575,9.78256573 2.40218202,9.79414215 2.24999121,9.79414215 C1.9451174,9.79414215 1.65507947,9.73541301 1.37987742,9.61767239 C1.1044117,9.50021412 0.867090363,9.34137369 0.667966141,9.14118639 C0.457029465,8.92942269 0.292780106,8.68841794 0.175780563,8.41764274 C0.0584997715,8.1471499 0,7.85293952 0,7.53529395 C0,7.22950716 0.0584997715,6.93833205 0.175780563,6.66176865 C0.292780106,6.38546995 0.457029465,6.14725342 0.667966141,5.94706613 C0.867090363,5.73530242 1.10439412,5.57069143 1.37987742,5.45295081 C1.65509705,5.33549254 1.9451174,5.27648105 2.24999121,5.27648105 C2.40214687,5.27648105 2.54883575,5.2913751 2.6894602,5.32059849 C2.83008465,5.35008659 2.96467983,5.39422167 3.09377307,5.45295081 C3.22258507,5.50010353 3.34260804,5.56186794 3.45412323,5.63824406 C3.56537474,5.71488487 3.67384893,5.80010212 3.77931727,5.8941252 L9.0703298,2.78825747 C9.05851735,2.75296352 9.04972832,2.71186371 9.04396272,2.66471099 C9.03793345,2.61784062 9.02912684,2.57645846 9.01759563,2.54116451 C9.01759563,2.49429414 9.01457221,2.44714143 9.00880661,2.39998871 C9.00277733,2.35311834 9.00001758,2.30596562 9.00001758,2.2588129 C9.00001758,1.9530261 9.05851735,1.661851 9.17579814,1.3852876 C9.29279768,1.1089889 9.45704704,0.870772373 9.66798372,0.67058508 C9.86710794,0.470680138 10.1044117,0.308822076 10.379895,0.185293246 C10.6551146,0.0617467683 10.945135,0 11.2500088,0 C11.5546013,0 11.8446393,0.0617644152 12.1201226,0.185293246 C12.3953422,0.308839723 12.6326284,0.470680138 12.8320339,0.67058508 C13.0429705,0.870772373 13.2069386,1.10900655 13.3242194,1.3852876 C13.441219,1.66183336 13.5,1.9530261 13.5,2.2588129 C13.5,2.57645846 13.441219,2.87370412 13.3242194,3.14998518 C13.2069386,3.42653093 13.0429705,3.66478275 12.8320339,3.8646877 C12.6326284,4.06487499 12.3953246,4.22368012 12.1201226,4.34117369 C11.8446569,4.45891431 11.5546013,4.51764345 11.2500088,4.51764345 C11.0975719,4.51764345 10.9511643,4.50606703 10.8105398,4.48234949 C10.6699154,4.45891431 10.5350741,4.4178145 10.4062269,4.35880302 C10.2771337,4.31193265 10.1571107,4.25016823 10.0458768,4.17350977 C9.93437916,4.09711601 9.82615107,4.01193406 9.72068273,3.91762862 L4.42970535,7.00586703 C4.44123656,7.05301975 4.45002559,7.09713719 4.45607244,7.13821935 C4.46185562,7.17956621 4.47062707,7.2237013 4.48243952,7.27057167 C4.48243952,7.31772439 4.4851817,7.36184183 4.49122855,7.40292399 C4.49701173,7.44427085 4.50001758,7.48840594 4.50001758,7.5352763 C4.50001758,7.58242902 4.49699415,7.62958174 4.49122855,7.67645211 C4.48519928,7.72360483 4.48243952,7.77075755 4.48243952,7.81762792 C4.47062707,7.85292187 4.46183804,7.89426873 4.45607244,7.94117439 C4.45004316,7.98832711 4.44123656,8.02942692 4.42970535,8.06472087 L9.77343448,11.1882532 C9.86709036,11.1060889 9.9725587,11.0294128 10.0898395,10.9588249 C10.206839,10.888237 10.3241198,10.823702 10.4414006,10.7646905 C10.5702126,10.7178202 10.702048,10.6825262 10.8369069,10.6588087 C10.9715021,10.6353911 11.1093668,10.6235324 11.2499912,10.6235324 C11.5545662,10.62355 11.8388385,10.6795262 12.1025094,10.7911963 Z" id="el-icon-share-copy"></path>
                    </g>
                </g>
            </g>
        </g>
    </g>
</svg>